<?xml version="1.0" encoding="UTF-8"?>
<svg version="1.1" xmlns="http://www.w3.org/2000/svg" width="267" height="281">
<path d="M0 0 C88.11 0 176.22 0 267 0 C267 92.73 267 185.46 267 281 C178.89 281 90.78 281 0 281 C0 188.27 0 95.54 0 0 Z " fill="#FEFEFD" transform="translate(0,0)"/>
<path d="M0 0 C3.15816415 2.65094385 4.68589315 6.01552859 6.375 9.6875 C6.67954102 10.34814453 6.98408203 11.00878906 7.29785156 11.68945312 C14.76192529 28.34430534 18.58592123 45.82756102 18.4375 64.0625 C18.43379395 64.7305365 18.43008789 65.398573 18.42626953 66.08685303 C18.13375351 103.43250592 3.64413206 136.76658431 -23 163 C-52.03316645 190.48756913 -87.85805183 201.03883582 -127.19921875 200.27734375 C-135.39752217 200.00665035 -143.08900239 199.17240255 -151 197 C-151.79212891 196.7848877 -152.58425781 196.56977539 -153.40039062 196.34814453 C-172.13603672 191.06933682 -190.09662664 182.65550407 -205 170 C-205.94746094 169.20207031 -206.89492187 168.40414062 -207.87109375 167.58203125 C-215.5574863 160.89868567 -215.5574863 160.89868567 -217 157 C-216.92298313 152.76407233 -216.38298138 150.54545833 -213.9375 147.0625 C-210.97479409 144.98230223 -208.96674855 144.02589113 -205.3046875 144.25390625 C-199.30963746 146.19467669 -194.61505322 151.49551986 -190.15234375 155.76953125 C-174.6503768 170.28276227 -152.8731426 179.85864396 -132 183 C-130.79472656 183.18175781 -129.58945313 183.36351562 -128.34765625 183.55078125 C-94.38565748 187.62541344 -61.00254477 179.07016751 -34 158 C-8.12570379 136.52881732 9.24832775 106.19238419 12.7890625 72.54199219 C13.96096893 58.41943466 13.2141844 44.78977725 10 31 C9.56494141 29.07414062 9.56494141 29.07414062 9.12109375 27.109375 C7.18840811 19.24924763 4.52111833 12.0673013 1.171875 4.73046875 C0 2 0 2 0 0 Z " fill="#5B5B5B" transform="translate(247,78)"/>
<path d="M0 0 C1.31484375 1.00740234 1.31484375 1.00740234 2.65625 2.03515625 C5.82402513 4.69080773 6.92787489 6.22104881 7.3125 10.375 C6.97991769 14.23295483 6.39841663 16.00197922 4 19 C0.56784294 21.5741178 -2.83377045 21.32354761 -7 21 C-9.5625 19.3828125 -9.5625 19.3828125 -12 17.125 C-38.07217102 -5.5278699 -69.80470592 -14.76926422 -104.08105469 -13.21582031 C-135.824763 -10.86876125 -166.14975866 5.34657973 -186.90625 29.27734375 C-210.20229669 57.27389621 -219.107017 90.71506212 -216.7578125 126.7109375 C-215.24005361 139.75127408 -211.47206982 153.40689866 -205.66748047 165.1940918 C-205.33707764 166.08801636 -205.33707764 166.08801636 -205 167 C-205.33 167.66 -205.66 168.32 -206 169 C-222.52572777 137.20190021 -227.25533818 100.8837295 -216.79345703 66.23632812 C-211.77964565 50.57424535 -204.40026379 35.79443133 -194 23 C-193.58637207 22.48244141 -193.17274414 21.96488281 -192.74658203 21.43164062 C-171.38654722 -5.19621425 -139.65178251 -24.67327939 -105.3125 -28.609375 C-67.33834226 -31.92039338 -30.15543745 -24.52860764 0 0 Z " fill="#EE7E1A" transform="translate(222,32)"/>
<path d="M0 0 C3.5625 0.3125 3.5625 0.3125 5.4375 1.5 C6.82479035 3.7350789 7.21237213 5.72155378 7.5625 8.3125 C8.00980469 7.90257813 8.45710938 7.49265625 8.91796875 7.0703125 C9.52253906 6.53148438 10.12710938 5.99265625 10.75 5.4375 C11.34167969 4.90382813 11.93335937 4.37015625 12.54296875 3.8203125 C19.03825143 -1.02916354 26.85426299 -0.33992131 34.5625 0.3125 C40.60002819 1.88787759 45.03151804 5.13005511 49.5625 9.3125 C50.05878906 8.91417969 50.55507812 8.51585938 51.06640625 8.10546875 C51.74574219 7.57566406 52.42507812 7.04585938 53.125 6.5 C53.78628906 5.97792969 54.44757813 5.45585938 55.12890625 4.91796875 C60.74431222 1.21342324 65.82449126 -0.20082351 72.5 -0.0625 C73.55441284 -0.0483606 73.55441284 -0.0483606 74.63012695 -0.03393555 C81.458574 0.16492049 85.99753228 1.15559533 91.3125 5.625 C96.38558341 11.68451629 98.67611686 15.85126044 98.70776367 23.69189453 C98.71414352 24.76625763 98.72052338 25.84062073 98.72709656 26.94754028 C98.72820938 28.10180511 98.7293222 29.25606995 98.73046875 30.4453125 C98.73546135 32.22758743 98.73546135 32.22758743 98.74055481 34.04586792 C98.74561545 36.55580254 98.7479634 39.06574388 98.74780273 41.57568359 C98.74999543 45.42947325 98.76817752 49.28297951 98.78710938 53.13671875 C98.79004214 55.57291568 98.79202772 58.00911398 98.79296875 60.4453125 C98.80015427 61.60362579 98.80733978 62.76193909 98.81474304 63.95535278 C98.81166641 65.02341156 98.80858978 66.09147034 98.80541992 67.19189453 C98.80684494 68.13469269 98.80826996 69.07749084 98.80973816 70.04885864 C98.5625 72.3125 98.5625 72.3125 96.5625 74.3125 C90.34705532 74.87754043 90.34705532 74.87754043 87.86289978 73.08843994 C86.17677785 70.78572402 86.19036241 69.42484982 86.19360352 66.58496094 C86.18672012 65.62676453 86.17983673 64.66856812 86.17274475 63.68133545 C86.17890305 62.6469635 86.18506134 61.61259155 86.19140625 60.546875 C86.1740179 58.35546724 86.15643359 56.16406102 86.13867188 53.97265625 C86.12861273 50.51868771 86.12499885 47.0648224 86.12670898 43.61083984 C86.12313005 40.27670598 86.09574561 36.94336702 86.06640625 33.609375 C86.07458878 32.58309998 86.0827713 31.55682495 86.09120178 30.49945068 C86.02636839 24.22769011 85.26935169 20.42933579 81.5625 15.3125 C76.94425957 11.98465028 71.03558271 11.7043797 65.5625 12.3125 C59.42813984 14.80783295 56.2020544 18.22891775 53.5625 24.3125 C52.90873861 28.05295776 52.93359795 31.69914183 52.99609375 35.48828125 C52.98764183 37.05874458 52.98764183 37.05874458 52.97901917 38.66093445 C52.96263858 41.9827531 52.97807491 45.30322854 53 48.625 C53.01658092 51.96449281 53.02573251 55.30311809 53.01026917 58.6426239 C53.00096773 60.71490236 53.01022415 62.78736447 53.03990173 64.85945129 C53.03632156 65.79439926 53.03274139 66.72934723 53.02905273 67.69262695 C53.0383506 68.92551201 53.0383506 68.92551201 53.0478363 70.18330383 C52.5625 72.3125 52.5625 72.3125 50.72865295 74.10905457 C48.5625 75.3125 48.5625 75.3125 45.4375 75.1875 C42.5625 74.3125 42.5625 74.3125 40.5625 71.3125 C40.30421448 69.16984558 40.30421448 69.16984558 40.29125977 66.66088867 C40.28107315 65.71948532 40.27088654 64.77808197 40.26039124 63.80815125 C40.25825119 62.79251602 40.25611115 61.7768808 40.25390625 60.73046875 C40.22874257 58.58007546 40.2033446 56.4296849 40.17773438 54.27929688 C40.14900864 50.88892343 40.12499223 47.4985975 40.10620117 44.1081543 C40.08451664 40.83617277 40.04506938 37.56475477 40.00390625 34.29296875 C40.00379044 33.28340622 40.00367462 32.27384369 40.0035553 31.23368835 C39.92696034 25.77358651 39.45586989 22.10471884 36.5625 17.3125 C36.5625 16.6525 36.5625 15.9925 36.5625 15.3125 C29.90720781 12.61440857 23.62219026 10.72776682 16.4921875 12.9609375 C11.92773163 15.27280476 9.32966527 18.62147342 7.5625 23.3125 C7.02595695 27.00086623 7.05167476 30.63373739 7.09375 34.35546875 C7.08670044 35.40148758 7.07965088 36.44750641 7.0723877 37.52522278 C7.05041465 40.8504001 7.05334954 44.17477152 7.0625 47.5 C7.0745224 51.88975806 7.06091511 56.27831651 7.03125 60.66796875 C7.04256958 61.67530563 7.05388916 62.68264252 7.06555176 63.72050476 C7.01524497 70.65260853 7.01524497 70.65260853 4.72851562 73.9855957 C2.5625 75.3125 2.5625 75.3125 -0.5625 75.1875 C-3.4375 74.3125 -3.4375 74.3125 -5.4375 72.3125 C-5.69146729 69.42797852 -5.69146729 69.42797852 -5.69628906 65.69140625 C-5.6997937 65.01157684 -5.70329834 64.33174744 -5.70690918 63.63131714 C-5.71572781 61.37910824 -5.70987705 59.12721222 -5.703125 56.875 C-5.70447162 55.31323181 -5.70641212 53.75146402 -5.70892334 52.18969727 C-5.71187477 48.91451023 -5.70757639 45.63943219 -5.69824219 42.36425781 C-5.68684757 38.16066309 -5.69340695 33.95732375 -5.70538712 29.7537384 C-5.71260523 26.52817858 -5.71031803 23.30267955 -5.70513153 20.07711792 C-5.7037949 18.52692637 -5.70544324 16.97672935 -5.71009064 15.42654419 C-5.71515516 13.26207807 -5.7074471 11.09802873 -5.69628906 8.93359375 C-5.69469788 7.7005249 -5.69310669 6.46745605 -5.69146729 5.19702148 C-5.30875212 0.85020131 -4.28503865 0.38954897 0 0 Z " fill="#EE7E19" transform="translate(101.4375,109.6875)"/>
<path d="M0 0 C1.31786499 0.01027222 1.31786499 0.01027222 2.66235352 0.02075195 C10.87179869 0.22327638 17.51092085 1.62139682 24.125 6.6875 C29.94206053 14.4435807 30.7870236 20.38479951 30.71875 29.890625 C30.7225769 31.06840515 30.72640381 32.2461853 30.73034668 33.45965576 C30.73305813 35.9373053 30.72575102 38.41498384 30.70898438 40.89257812 C30.68748898 44.68944635 30.70885352 48.48443874 30.734375 52.28125 C30.73173309 54.69271251 30.72661095 57.10417385 30.71875 59.515625 C30.72684692 60.6510675 30.73494385 61.78651001 30.74328613 62.95635986 C30.73067749 64.01135681 30.71806885 65.06635376 30.70507812 66.15332031 C30.70030457 67.54275848 30.70030457 67.54275848 30.69543457 68.96026611 C30.0317925 72.19689681 28.73829274 73.40305585 26.1875 75.4375 C23.2143731 75.94510703 21.86874137 75.90732164 19.375 74.1875 C18.1875 72.4375 18.1875 72.4375 18.1875 68.4375 C17.548125 69.035625 16.90875 69.63375 16.25 70.25 C8.35111746 75.89205896 -0.31423036 76.40671119 -9.8125 75.4375 C-17.34275647 73.57990358 -22.22648451 70.31652323 -26.5625 63.8125 C-29.60307862 58.03540062 -29.88443436 51.43847794 -28.19921875 45.1484375 C-25.48950861 38.96504608 -20.58680477 35.26027014 -14.60839844 32.37304688 C-11.25689998 31.25158843 -8.5124651 31.21106859 -4.98046875 31.2421875 C-3.04204102 31.25185547 -3.04204102 31.25185547 -1.06445312 31.26171875 C0.2903673 31.27842673 1.64518501 31.29535658 3 31.3125 C4.37434251 31.32253997 5.74869203 31.33166404 7.12304688 31.33984375 C10.47804317 31.36338758 13.83268199 31.39627433 17.1875 31.4375 C17.15440258 29.18687546 17.08492124 26.93676535 17 24.6875 C16.96519531 23.43453125 16.93039063 22.1815625 16.89453125 20.890625 C16.48848608 17.29896128 16.48848608 17.29896128 13.78979492 15.03027344 C7.5831342 11.23139413 -1.31021058 11.39795865 -8.265625 13.00390625 C-11.00406369 13.97250216 -13.30121058 14.90790355 -15.33984375 17.01953125 C-16.8125 18.4375 -16.8125 18.4375 -19.8125 18.8125 C-22.8125 18.4375 -22.8125 18.4375 -24.6875 17.25 C-26.21537708 14.78842025 -26.12914903 13.30017838 -25.8125 10.4375 C-24.34375 8.5234375 -24.34375 8.5234375 -22.3125 6.8125 C-21.6628125 6.24273437 -21.013125 5.67296875 -20.34375 5.0859375 C-13.84281735 0.85230543 -7.65940489 -0.09148835 0 0 Z " fill="#5C5C5C" transform="translate(59.8125,109.5625)"/>
<path d="M0 0 C3.96 0.33 7.92 0.66 12 1 C12.09262065 10.0749855 12.16372426 19.14980868 12.20724869 28.22516346 C12.22813678 32.43909697 12.25647611 36.65270748 12.30175781 40.86645508 C12.34517291 44.93187833 12.3691279 48.99699064 12.37950897 53.06262779 C12.38690823 54.61483342 12.40135723 56.16702175 12.42292023 57.71909523 C12.45189829 59.89098707 12.45595861 62.06158899 12.45410156 64.23364258 C12.46298401 65.47052322 12.47186646 66.70740387 12.48101807 67.98176575 C12 71 12 71 10.1317749 72.93070984 C8 74 8 74 5.4375 73.875 C2.70239505 72.89316745 1.71013537 72.33383965 0 70 C-0.36076355 66.98176575 -0.36076355 66.98176575 -0.34057617 63.23364258 C-0.34101425 62.55045456 -0.34145233 61.86726654 -0.34190369 61.16337585 C-0.33981482 58.90680288 -0.31648037 56.65097431 -0.29296875 54.39453125 C-0.28737311 52.82940578 -0.28310286 51.26427506 -0.28010559 49.69914246 C-0.26865419 45.58083576 -0.2391847 41.46284675 -0.20599365 37.34466553 C-0.17529901 33.14193011 -0.16160156 28.93914334 -0.14648438 24.73632812 C-0.11431507 16.49073967 -0.0631154 8.24540936 0 0 Z " fill="#5B5B5B" transform="translate(211,111)"/>
<path d="M0 0 C1.16337891 0.00322266 2.32675781 0.00644531 3.52539062 0.00976562 C4.74033203 0.01814453 5.95527344 0.02652344 7.20703125 0.03515625 C8.43357422 0.03966797 9.66011719 0.04417969 10.92382812 0.04882812 C13.95577793 0.0606256 16.98763031 0.07708704 20.01953125 0.09765625 C20.0551272 2.01418742 20.08049778 3.93091029 20.1015625 5.84765625 C20.12440308 7.44867188 20.12440308 7.44867188 20.14770508 9.08203125 C20.00297213 12.48725285 19.54089792 14.89252739 17.6015625 17.6953125 C12.23276267 22.45432272 4.35372792 23.79237046 -2.6171875 23.4921875 C-6.4766547 22.84787975 -9.82432738 21.41061279 -12.98046875 19.09765625 C-15.7948445 14.87609263 -15.90521926 11.0533705 -14.98046875 6.09765625 C-11.21037944 0.82904564 -6.0888582 -0.02970175 0 0 Z " fill="#F8F8F8" transform="translate(57.98046875,150.90234375)"/>
<path d="M0 0 C3.80470451 0.7133821 5.41196019 1.67868421 8 4.5625 C9.27176524 8.67703459 9.50686067 10.59101705 7.5 14.4375 C4.23718151 17.21089572 2.26438773 17.63731382 -2 17.5625 C-4.80189446 15.79608828 -6.51524911 14.53200178 -8 11.5625 C-8.54035146 7.50986402 -8.34199395 6.02519769 -5.875 2.6875 C-3 0.5625 -3 0.5625 0 0 Z " fill="#EE8220" transform="translate(217,85.4375)"/>
<path d="M0 0 C0.99 0 1.98 0 3 0 C3.19110352 0.6798999 3.38220703 1.3597998 3.57910156 2.06030273 C4.46248843 5.18803441 5.35616845 8.31273787 6.25 11.4375 C6.55035156 12.50677734 6.85070312 13.57605469 7.16015625 14.67773438 C8.82334099 20.46349407 10.66136443 25.88573724 13.35449219 31.27758789 C13.56750977 31.84598389 13.78052734 32.41437988 14 33 C13.67 33.66 13.34 34.32 13 35 C7.0977704 23.64318181 2.10107788 12.7446961 0 0 Z " fill="#F19949" transform="translate(3,166)"/>
<path d="M0 0 C3.25520627 2.69943935 4.77452439 6.23826628 6.5 10 C6.80752197 10.66265869 7.11504395 11.32531738 7.43188477 12.00805664 C9.92285388 17.52192402 11.70834751 23.08300146 13 29 C12.34 29 11.68 29 11 29 C10.67 29.66 10.34 30.32 10 31 C9.67128906 29.61941406 9.67128906 29.61941406 9.3359375 28.2109375 C7.27476849 19.98301893 4.694643 12.4474234 1.171875 4.73046875 C0 2 0 2 0 0 Z " fill="#6D6D6D" transform="translate(247,78)"/>
<path d="M0 0 C2.65171248 2.37094293 4.1490052 4.83568087 5.75 8 C6.19859375 8.86625 6.6471875 9.7325 7.109375 10.625 C8 13 8 13 7 16 C4.53859635 13.53859635 3.69673014 11.21543707 2.375 8 C1.92898437 6.9275 1.48296875 5.855 1.0234375 4.75 C0 2 0 2 0 0 Z " fill="#7A7A7A" transform="translate(247,78)"/>
<path d="M0 0 C0.99 0 1.98 0 3 0 C3.33 2.64 3.66 5.28 4 8 C3.34 8 2.68 8 2 8 C1.34 5.36 0.68 2.72 0 0 Z " fill="#EF882C" transform="translate(3,166)"/>
</svg>
