<?xml version="1.0" ?>
    <svg xmlns="http://www.w3.org/2000/svg" width="16" height="16" viewBox="0 0 16 16" fill="">
        <path fill-rule="evenodd" clip-rule="evenodd" d="M5.49999 14.8293C7.89146 16.21 10.9494 15.3906 12.3301 12.9992C13.7108 10.6077 12.8915 7.54975 10.5 6.16904C9.88415 5.81348 9.22411 5.60382 8.5599 5.52934L11.2122 1L7.74812 1L3.66985 7.99915C2.28914 10.3906 3.10853 13.4486 5.49999 14.8293ZM9.73204 11.4992C9.17976 12.4558 7.95658 12.7835 6.99999 12.2312C6.04341 11.6789 5.71566 10.4558 6.26794 9.49917C6.82023 8.54258 8.04341 8.21483 8.99999 8.76711C9.95658 9.3194 10.2843 10.5426 9.73204 11.4992Z" fill="#f2722c"/>
    </svg>